<svg xmlns="http://www.w3.org/2000/svg" width="49" height="41.344" viewBox="0 0 49 41.344"><defs><style>.a{fill:#a1eeeb;}.b{fill:#048c88;}.c{fill:#ebf9f9;}.d{fill:#fff;}</style></defs><g transform="translate(0 -5)"><path class="a" d="M45.427,13.07H36.275a1.531,1.531,0,0,1-1.449-1.036l-1.588-4.62A3.572,3.572,0,0,0,29.859,5H19.141a3.572,3.572,0,0,0-3.379,2.414l-1.588,4.62a1.531,1.531,0,0,1-1.449,1.036H3.573A3.577,3.577,0,0,0,0,16.643V42.674a3.576,3.576,0,0,0,3.573,3.572H45.427A3.576,3.576,0,0,0,49,42.674V16.643a3.577,3.577,0,0,0-3.573-3.573Z" transform="translate(0 0)"/><path class="b" d="M3.573,54.023H45.427A3.577,3.577,0,0,0,49,50.449V37.763c-.145,2.02-3.089,12.686-49,12.686a3.577,3.577,0,0,0,3.573,3.573Z" transform="translate(0 -7.679)"/><g transform="translate(2.297 7.297)"><path class="b" d="M37.821,9.531H35.41A.766.766,0,0,1,35.41,8h2.569a1.275,1.275,0,0,1,1.206.862.766.766,0,0,1-1.364.669Z" transform="translate(-10.417 -8)"/><path class="b" d="M13.688,20.071h-.923a.766.766,0,1,1,0-1.531h.924a.766.766,0,1,1,0,1.531Z" transform="translate(-5.109 -10.47)"/><path class="b" d="M3.766,22.429A.766.766,0,0,1,3,21.664V19.816A1.278,1.278,0,0,1,4.276,18.54H8.091a.766.766,0,0,1,0,1.531H4.531v1.592A.766.766,0,0,1,3.766,22.429Z" transform="translate(-3 -10.47)"/></g><circle class="b" cx="9.708" cy="9.708" r="9.708" transform="matrix(0.16, -0.987, 0.987, 0.16, 13.358, 37.73)"/><circle class="c" cx="4.316" cy="4.316" r="4.316" transform="matrix(0.16, -0.987, 0.987, 0.16, 19.543, 33.27)"/><path class="d" d="M30.135,27.725a.766.766,0,0,1-.123-1.522,8.69,8.69,0,0,1,1.37-.109.766.766,0,0,1,0,1.531,7.042,7.042,0,0,0-1.123.09A.757.757,0,0,1,30.135,27.725Z" transform="translate(-6.882 -4.944)"/><path class="d" d="M21.593,35.719a.766.766,0,0,1-.766-.766,8.579,8.579,0,0,1,4.364-7.459.766.766,0,1,1,.752,1.334,7.044,7.044,0,0,0-3.588,6.125A.766.766,0,0,1,21.593,35.719Z" transform="translate(-4.881 -5.249)"/></g></svg>