<svg xmlns="http://www.w3.org/2000/svg" width="76" height="76" viewBox="0 0 76 76">
  <g id="Group_460" data-name="Group 460" transform="translate(-137 -220)">
    <circle id="Ellipse_57" data-name="Ellipse 57" cx="38" cy="38" r="38" transform="translate(137 220)" fill="#b5f6f4"/>
    <g id="Group_459" data-name="Group 459" transform="translate(156.543 236.286)">
      <g id="file_5_" data-name="file (5)" transform="translate(0 3.257)" opacity="0.55">
        <path id="Path_405" data-name="Path 405" d="M61.027,13.257v5.257H71.54V44.8a1.757,1.757,0,0,1-1.752,1.752H41.752A1.752,1.752,0,0,1,40,44.8V9.752A1.752,1.752,0,0,1,41.752,8H61.027Z" transform="translate(-39.124 -7.124)" fill="#28a7a3"/>
        <g id="Group_457" data-name="Group 457" transform="translate(0 0)">
          <path id="Path_406" data-name="Path 406" d="M32,2.628V37.673A2.632,2.632,0,0,0,34.628,40.3H62.664a2.632,2.632,0,0,0,2.628-2.628L52.264,9.637a.874.874,0,0,0-.257-.619L43.246.257A.872.872,0,0,0,42.627,0h-8A2.632,2.632,0,0,0,32,2.628Zm9.75-.876h.513L50.512,10v.513H41.75ZM40,5.257H38.133a.876.876,0,0,0-.876.876V11.39a.876.876,0,0,0,.876.876c.484,0,.876-.392.876-5.257H40V11.39a.876.876,0,0,0,.876.876h9.637L63.54,37.673a.877.877,0,0,1-.876.876H34.628a.877.877,0,0,1-.876-.876V2.628a.877.877,0,0,1,.876-.876H40Z" transform="translate(-32 0)" fill="#28a7a3"/>
        </g>
      </g>
      <g id="file_5_2" data-name="file (5)" transform="translate(3.257 0)">
        <path id="Path_405-2" data-name="Path 405" d="M61.027,13.257v5.257H71.54V44.8a1.757,1.757,0,0,1-1.752,1.752H41.752A1.752,1.752,0,0,1,40,44.8V9.752A1.752,1.752,0,0,1,41.752,8H61.027Z" transform="translate(-39.124 -7.124)" fill="#25aaa5"/>
        <g id="Group_457-2" data-name="Group 457" transform="translate(0 0)">
          <path id="Path_406-2" data-name="Path 406" d="M32,2.628V37.673A2.632,2.632,0,0,0,34.628,40.3H62.664a2.632,2.632,0,0,0,2.628-2.628V9.637a.874.874,0,0,0-.257-.619L56.275.257A.872.872,0,0,0,55.655,0H34.628A2.632,2.632,0,0,0,32,2.628Zm22.779-.876h.513L63.54,10v.513H54.779Zm-1.752,3.5H38.133a.876.876,0,0,0-.876.876V11.39a.876.876,0,0,0,.876.876c.484,0,.876-.392.876-5.257H53.027V11.39a.876.876,0,0,0,.876.876H63.54V37.673a.877.877,0,0,1-.876.876H34.628a.877.877,0,0,1-.876-.876V2.628a.877.877,0,0,1,.876-.876h18.4Z" transform="translate(-32 0)" fill="#25aaa5"/>
        </g>
      </g>
      <g id="Group_458" data-name="Group 458" transform="translate(12.559 14.243)">
        <path id="Path_407" data-name="Path 407" d="M26.786,22.776a1.741,1.741,0,0,1-1.24-.515l-4.025-4.025L17.5,22.261a1.755,1.755,0,1,1-2.483-2.483l5.265-5.265a1.755,1.755,0,0,1,2.483,0l5.265,5.265a1.756,1.756,0,0,1-1.24,3Z" transform="translate(-14.499 -13.999)" fill="#fff"/>
        <path id="Path_408" data-name="Path 408" d="M18.5,29.709a1.756,1.756,0,0,1-1.755-1.755v-11.7a1.755,1.755,0,1,1,3.51,0v11.7A1.756,1.756,0,0,1,18.5,29.709Z" transform="translate(-11.483 -13.328)" fill="#fff"/>
      </g>
    </g>
  </g>
</svg>
