<svg xmlns="http://www.w3.org/2000/svg" width="39" height="49.174" viewBox="0 0 39 49.174">
  <g id="xml" transform="translate(-72 -24)">
    <path id="Path_375" data-name="Path 375" d="M105.913,73.174H77.087A5.087,5.087,0,0,1,72,68.087v-39A5.087,5.087,0,0,1,77.087,24h23.739L111,34.174V68.087A5.087,5.087,0,0,1,105.913,73.174Z" fill="#a1eeeb"/>
    <path id="Path_376" data-name="Path 376" d="M72,360h39v8.478a5.087,5.087,0,0,1-5.087,5.087H77.087A5.087,5.087,0,0,1,72,368.478Z" transform="translate(0 -300.391)" fill="#048c88"/>
    <g id="Group_451" data-name="Group 451" transform="translate(78.783 24)">
      <path id="Path_377" data-name="Path 377" d="M354.174,34.174h-5.087A5.087,5.087,0,0,1,344,29.087V24Z" transform="translate(-321.957 -24)" fill="#048c88"/>
      <path id="Path_378" data-name="Path 378" d="M141.935,171.869a.845.845,0,0,1-.6-.248l-5.087-5.087a.848.848,0,0,1,0-1.2l5.087-5.087a.848.848,0,0,1,1.2,1.2l-4.488,4.487,4.488,4.487a.848.848,0,0,1-.6,1.447Z" transform="translate(-136 -145.587)" fill="#048c88"/>
      <path id="Path_379" data-name="Path 379" d="M312.847,171.869a.848.848,0,0,1-.6-1.447l4.488-4.487-4.488-4.487a.848.848,0,1,1,1.2-1.2l5.087,5.087a.848.848,0,0,1,0,1.2l-5.087,5.087A.845.845,0,0,1,312.847,171.869Z" transform="translate(-293.347 -145.587)" fill="#048c88"/>
      <circle id="Ellipse_36" data-name="Ellipse 36" cx="1" cy="1" r="1" transform="translate(12.217 19.174)" fill="#048c88"/>
      <ellipse id="Ellipse_37" data-name="Ellipse 37" cx="0.5" cy="1" rx="0.5" ry="1" transform="translate(15.217 19.174)" fill="#048c88"/>
      <circle id="Ellipse_38" data-name="Ellipse 38" cx="1" cy="1" r="1" transform="translate(8.217 19.174)" fill="#048c88"/>
    </g>
    <path id="Path_380" data-name="Path 380" d="M308.239,390.783H305.7v-5.935a.848.848,0,1,0-1.7,0v6.783a.848.848,0,0,0,.848.848h3.391a.848.848,0,0,0,0-1.7Z" transform="translate(-207.413 -321.848)" fill="#fff"/>
    <path id="Path_381" data-name="Path 381" d="M164.617,384.088a.848.848,0,0,0-1.137.379l-.937,1.875-.937-1.875a.848.848,0,1,0-1.517.758l1.506,3.012-1.506,3.012a.848.848,0,1,0,1.517.758l.937-1.875.937,1.875A.848.848,0,1,0,165,391.25l-1.506-3.012L165,385.225a.848.848,0,0,0-.379-1.137Z" transform="translate(-78.672 -321.846)" fill="#fff"/>
    <path id="Path_382" data-name="Path 382" d="M230.105,384.015a.847.847,0,0,0-.95.5l-1.764,4.116-1.764-4.116a.848.848,0,0,0-1.627.334v6.783a.848.848,0,0,0,1.7,0v-2.652l.916,2.138a.848.848,0,0,0,1.559,0l.916-2.138v2.652a.848.848,0,0,0,1.7,0v-6.783a.848.848,0,0,0-.677-.83Z" transform="translate(-135.891 -321.846)" fill="#fff"/>
  </g>
</svg>
